<svg width="252" height="217" viewBox="0 0 252 217" fill="none" xmlns="http://www.w3.org/2000/svg">
<g id="logo/full">
<rect id="bg" width="251.823" height="217" rx="20" fill="url(#paint0_linear_0_286)"/>
<g id="logo/symbol">
<path id="color" fill-rule="evenodd" clip-rule="evenodd" d="M110.804 70.2409C125.055 70.2409 136.608 81.7915 136.608 96.0399C136.608 110.288 125.055 121.839 110.804 121.839C96.5528 121.839 85 110.288 85 96.0399C85 81.7915 96.5528 70.2409 110.804 70.2409Z" fill="#FCE38A"/>
<path id="color_2" fill-rule="evenodd" clip-rule="evenodd" d="M141.714 70C155.965 70 167.517 81.5506 167.517 95.799C167.517 110.047 155.965 121.598 141.714 121.598C127.462 121.598 115.91 110.047 115.91 95.799C115.91 81.5506 127.462 70 141.714 70Z" fill="#F38181"/>
<path id="color_3" fill-rule="evenodd" clip-rule="evenodd" d="M141.714 95.9195C155.965 95.9195 167.517 107.47 167.517 121.718C167.517 135.967 155.965 147.518 141.714 147.518C127.462 147.518 115.91 135.967 115.91 121.718C115.91 107.47 127.462 95.9195 141.714 95.9195Z" fill="#FCBF49"/>
<path id="color_4" fill-rule="evenodd" clip-rule="evenodd" d="M110.804 95.9195C125.055 95.9195 136.608 107.47 136.608 121.718C136.608 135.967 125.055 147.518 110.804 147.518C96.5528 147.518 85 135.967 85 121.718C85 107.47 96.5528 95.9195 110.804 95.9195Z" fill="#D62828"/>
<path id="Shape" fill-rule="evenodd" clip-rule="evenodd" d="M107.913 115.563V122.802H128.801V130.449H137.588V122.802H142.976V115.427H137.588V86.9473H132.319H128.954H126.065L107.913 115.563ZM128.954 96.973H128.614L117.176 115.087V115.427H128.954V96.973Z" fill="white"/>
</g>
<g id="Find" filter="url(#filter0_d_0_286)">
<path id="Path" d="M17 120.062V98.2443H31.4374V102.045H21.6108V107.244H30.4829V111.045H21.6108V120.062H17Z" fill="white"/>
<path id="Shape_2" fill-rule="evenodd" clip-rule="evenodd" d="M35.0063 100.912C35.4879 101.361 36.0663 101.585 36.7417 101.585C37.4171 101.585 37.9945 101.361 38.4739 100.912C38.9533 100.463 39.193 99.9234 39.193 99.2928C39.193 98.6623 38.9533 98.1225 38.4739 97.6735C37.9945 97.2245 37.416 97 36.7385 97C36.0665 97 35.4894 97.2244 35.0072 97.6732C34.525 98.1221 34.2839 98.6618 34.2839 99.2923C34.2839 99.9229 34.5247 100.463 35.0063 100.912ZM34.463 103.699V120.062H38.9971V103.699H34.463Z" fill="white"/>
<path id="Path_2" d="M47.1617 110.602V120.062H42.6277V103.699H46.9486V106.588H47.1361C47.5025 105.633 48.1115 104.878 48.9631 104.321C49.8147 103.764 50.8478 103.486 52.0623 103.486C53.2 103.486 54.1918 103.735 55.0377 104.233C55.8836 104.73 56.5405 105.439 57.0085 106.358C57.4766 107.277 57.7085 108.371 57.7043 109.639V120.062H53.1702V110.449C53.1744 109.449 52.9184 108.666 52.4021 108.101C51.8858 107.535 51.1731 107.253 50.264 107.253C49.6532 107.253 49.1145 107.385 48.6479 107.65C48.1812 107.915 47.8179 108.297 47.558 108.796C47.298 109.296 47.1659 109.898 47.1617 110.602Z" fill="white"/>
<path id="Shape_3" fill-rule="evenodd" clip-rule="evenodd" d="M63.9376 119.361C64.9411 120.005 66.0651 120.327 67.3094 120.327C68.1901 120.327 68.9369 120.181 69.5499 119.889C70.1628 119.597 70.6643 119.23 71.0542 118.787C71.4441 118.345 71.7441 117.898 71.9543 117.446H72.1504V120.062H76.6246V98.2443H72.0906V106.452H71.9543C71.7527 106.006 71.4622 105.554 71.0829 105.098C70.7036 104.641 70.2064 104.258 69.5914 103.949C68.9764 103.64 68.2129 103.486 67.3009 103.486C66.1021 103.486 64.9994 103.796 63.993 104.417C62.9866 105.038 62.1812 105.972 61.5768 107.219C60.9724 108.466 60.6702 110.026 60.6702 111.898C60.6702 113.724 60.9639 115.264 61.5512 116.517C62.1386 117.77 62.9341 118.718 63.9376 119.361ZM70.6066 116.111C70.0959 116.512 69.477 116.713 68.7498 116.713C68.0054 116.713 67.3778 116.509 66.8672 116.101C66.3566 115.692 65.9688 115.125 65.7039 114.398C65.439 113.672 65.3066 112.832 65.3066 111.881C65.3066 110.935 65.4376 110.103 65.6997 109.385C65.9617 108.666 66.3481 108.106 66.8587 107.703C67.3694 107.301 67.9997 107.099 68.7498 107.099C69.4828 107.099 70.1046 107.295 70.6152 107.686C71.1258 108.078 71.5151 108.631 71.7828 109.346C72.0506 110.061 72.1845 110.906 72.1845 111.881C72.1845 112.852 72.0492 113.7 71.7786 114.424C71.508 115.147 71.1173 115.71 70.6066 116.111Z" fill="white"/>
</g>
<g id="Four" filter="url(#filter1_d_0_286)">
<path id="Path_3" d="M176 118.818V97H190.437V100.801H180.611V106H189.483V109.801H180.611V118.818H176Z" fill="white"/>
<path id="Shape_4" fill-rule="evenodd" clip-rule="evenodd" d="M196.563 118.076C197.766 118.781 199.196 119.133 200.852 119.133C202.509 119.133 203.938 118.781 205.141 118.076C206.345 117.37 207.273 116.385 207.926 115.118C208.58 113.852 208.906 112.378 208.906 110.696C208.906 109.009 208.58 107.53 207.926 106.261C207.273 104.992 206.345 104.005 205.141 103.299C203.938 102.594 202.509 102.241 200.852 102.241C199.196 102.241 197.766 102.594 196.563 103.299C195.36 104.005 194.432 104.992 193.778 106.261C193.125 107.53 192.798 109.009 192.798 110.696C192.798 112.378 193.125 113.852 193.778 115.118C194.432 116.385 195.36 117.37 196.563 118.076ZM202.759 114.977C202.252 115.407 201.625 115.622 200.878 115.622C200.114 115.622 199.474 115.407 198.958 114.977C198.442 114.546 198.055 113.958 197.797 113.212C197.538 112.467 197.409 111.619 197.409 110.67C197.409 109.717 197.538 108.868 197.797 108.121C198.055 107.375 198.442 106.785 198.958 106.352C199.474 105.918 200.114 105.702 200.878 105.702C201.625 105.702 202.252 105.918 202.759 106.352C203.266 106.785 203.649 107.375 203.908 108.121C204.166 108.868 204.296 109.717 204.296 110.67C204.296 111.619 204.166 112.467 203.908 113.212C203.649 113.958 203.266 114.546 202.759 114.977Z" fill="white"/>
<path id="Path_4" d="M222.364 111.847V102.455H226.898V118.818H222.542V115.844H222.372C222.006 116.803 221.394 117.573 220.538 118.157C219.681 118.74 218.639 119.031 217.412 119.031C216.317 119.031 215.353 118.783 214.522 118.288C213.69 117.792 213.041 117.085 212.576 116.165C212.111 115.246 211.876 114.151 211.872 112.878V102.455H216.406V112.068C216.41 113.031 216.669 113.793 217.183 114.354C217.696 114.915 218.383 115.196 219.244 115.196C219.788 115.196 220.298 115.069 220.773 114.816C221.248 114.562 221.633 114.187 221.928 113.691C222.222 113.194 222.368 112.58 222.364 111.847Z" fill="white"/>
<path id="Path_5" d="M230.528 118.818V102.455H234.926V105.31H235.096C235.395 104.295 235.895 103.528 236.597 103.006C237.3 102.485 238.109 102.224 239.025 102.224C239.253 102.224 239.497 102.238 239.759 102.264C240.021 102.29 240.251 102.327 240.449 102.376V106.409C240.24 106.341 239.947 106.283 239.571 106.234C239.194 106.186 238.848 106.162 238.531 106.162C237.868 106.162 237.274 106.306 236.751 106.593C236.227 106.881 235.815 107.28 235.514 107.791C235.213 108.301 235.062 108.892 235.062 109.563V118.818H230.528Z" fill="white"/>
</g>
</g>
<defs>
<filter id="filter0_d_0_286" x="17" y="97" width="59.6248" height="24.3266" filterUnits="userSpaceOnUse" color-interpolation-filters="sRGB">
<feFlood flood-opacity="0" result="BackgroundImageFix"/>
<feColorMatrix in="SourceAlpha" type="matrix" values="0 0 0 0 0 0 0 0 0 0 0 0 0 0 0 0 0 0 127 0" result="hardAlpha"/>
<feOffset dy="1"/>
<feColorMatrix type="matrix" values="0 0 0 0 0.376471 0 0 0 0 0.470588 0 0 0 0 0.917647 0 0 0 1 0"/>
<feBlend mode="normal" in2="BackgroundImageFix" result="effect1_dropShadow_0_286"/>
<feBlend mode="normal" in="SourceGraphic" in2="effect1_dropShadow_0_286" result="shape"/>
</filter>
<filter id="filter1_d_0_286" x="176" y="97" width="64.4487" height="23.1335" filterUnits="userSpaceOnUse" color-interpolation-filters="sRGB">
<feFlood flood-opacity="0" result="BackgroundImageFix"/>
<feColorMatrix in="SourceAlpha" type="matrix" values="0 0 0 0 0 0 0 0 0 0 0 0 0 0 0 0 0 0 127 0" result="hardAlpha"/>
<feOffset dy="1"/>
<feColorMatrix type="matrix" values="0 0 0 0 0.376471 0 0 0 0 0.470588 0 0 0 0 0.917647 0 0 0 1 0"/>
<feBlend mode="normal" in2="BackgroundImageFix" result="effect1_dropShadow_0_286"/>
<feBlend mode="normal" in="SourceGraphic" in2="effect1_dropShadow_0_286" result="shape"/>
</filter>
<linearGradient id="paint0_linear_0_286" x1="-125.911" y1="108.5" x2="88.7074" y2="357.559" gradientUnits="userSpaceOnUse">
<stop stop-color="#17EAD9"/>
<stop offset="1" stop-color="#6078EA"/>
</linearGradient>
</defs>
</svg>
