<svg width="249" height="234" viewBox="0 0 249 234" fill="none" xmlns="http://www.w3.org/2000/svg">
<g id="logo/symbol">
<path id="color" fill-rule="evenodd" clip-rule="evenodd" d="M77.6376 0.724823C120.516 0.724823 155.275 35.4844 155.275 78.3624C155.275 121.24 120.516 156 77.6376 156C34.7595 156 0 121.24 0 78.3624C0 35.4844 34.7595 0.724823 77.6376 0.724823Z" fill="#FCE38A"/>
<path id="color_2" fill-rule="evenodd" clip-rule="evenodd" d="M170.638 0C213.516 0 248.275 34.7595 248.275 77.6376C248.275 120.516 213.516 155.275 170.638 155.275C127.76 155.275 93 120.516 93 77.6376C93 34.7595 127.76 0 170.638 0Z" fill="#F38181"/>
<path id="color_3" fill-rule="evenodd" clip-rule="evenodd" d="M170.638 78C213.516 78 248.275 112.76 248.275 155.638C248.275 198.516 213.516 233.275 170.638 233.275C127.76 233.275 93 198.516 93 155.638C93 112.76 127.76 78 170.638 78Z" fill="#FCBF49"/>
<path id="color_4" fill-rule="evenodd" clip-rule="evenodd" d="M77.6376 78C120.516 78 155.275 112.76 155.275 155.638C155.275 198.516 120.516 233.275 77.6376 233.275C34.7595 233.275 0 198.516 0 155.638C0 112.76 34.7595 78 77.6376 78Z" fill="#D62828"/>
<path id="Shape" fill-rule="evenodd" clip-rule="evenodd" d="M68.9407 137.114V158.898H131.787V181.909H158.225V158.898H174.434V136.704H158.225V51H142.372H132.247H123.555L68.9407 137.114ZM132.247 81.1705H131.224L96.809 135.682V136.704H132.247V81.1705Z" fill="white"/>
</g>
</svg>
